<svg width="20" height="20" viewBox="0 0 20 20" fill="none" xmlns="http://www.w3.org/2000/svg">
<path d="M16.667 7.96417V2.5H15.0003V4.16667H5.00033V2.5H3.33366V7.96417C2.34199 8.54167 1.66699 9.60417 1.66699 10.8333V14.1667C1.66699 14.3877 1.75479 14.5996 1.91107 14.7559C2.06735 14.9122 2.27931 15 2.50033 15H3.33366V18.3333H5.00033V15H15.0003V18.3333H16.667V15H17.5003C17.7213 15 17.9333 14.9122 18.0896 14.7559C18.2459 14.5996 18.3337 14.3877 18.3337 14.1667V10.8333C18.3337 9.60417 17.6578 8.54167 16.667 7.96417ZM15.0003 5.83333V7.5H10.8337V5.83333H15.0003ZM5.00033 5.83333H9.16699V7.5H5.00033V5.83333ZM16.667 13.3333H3.33366V10.8333C3.33366 9.91417 4.08116 9.16667 5.00033 9.16667H15.0003C15.9195 9.16667 16.667 9.91417 16.667 10.8333V13.3333Z" fill="#8D8D8D"/>
</svg>
